<?xml version="1.0" encoding="UTF-8"?>
<svg width="150px" height="36px" viewBox="0 0 150 36" version="1.1" xmlns="http://www.w3.org/2000/svg" xmlns:xlink="http://www.w3.org/1999/xlink">
    <!-- Generator: Sketch 43.1 (39012) - http://www.bohemiancoding.com/sketch -->
    <title>turismoi-blanco</title>
    <desc>Created with Sketch.</desc>
    <defs></defs>
    <g id="Page-1" stroke="none" stroke-width="1" fill="none" fill-rule="evenodd">
        <g id="logo-wide" transform="translate(-6.000000, -6.000000)">
            <g id="turismoi-blanco" transform="translate(6.000000, 6.000000)">
                <path d="M5.4648828,8.51534912 L5.4648828,12.3175635 L8.4702665,12.3175635 L8.4702665,14.4444727 L5.4648828,14.4444727 L5.4648828,24.015564 C5.4648828,24.7536731 5.61881554,25.2732553 5.92668566,25.5743262 C6.23455577,25.875397 6.64259972,26.0259302 7.15082975,26.0259302 C7.40494477,26.0259302 7.69081987,26.0040786 8.00846364,25.9603748 C8.32610741,25.9166709 8.59243549,25.8705398 8.80745589,25.82198 L9.20328692,27.7886426 C8.92962459,27.9634579 8.52891077,28.1067072 8.00113343,28.2183948 C7.4733561,28.3300823 6.94558667,28.3859253 6.41780934,28.3859253 C5.24497081,28.3859253 4.31160081,28.0338719 3.61767135,27.3297546 C2.92374188,26.6256373 2.57678236,25.5209182 2.57678236,24.015564 L2.57678236,14.4444727 L0.0698525338,14.4444727 L0.0698525338,12.3175635 L2.57678236,12.3175635 L2.57678236,8.51534912 L5.4648828,8.51534912 Z M22.7641646,25.7491406 C22.2657082,26.5940814 21.6231001,27.2447731 20.8363209,27.7012354 C20.0495417,28.1576976 19.1430489,28.3859253 18.1168152,28.3859253 C16.396652,28.3859253 15.0527947,27.8372076 14.0852029,26.7397559 C13.1176111,25.6423041 12.6338225,23.9330243 12.6338225,21.6118652 L12.6338225,14.5755835 L10.8159318,14.1676831 L10.8159318,12.3175635 L15.5219229,12.3175635 L15.5219229,21.641001 C15.5219229,23.3211705 15.7711474,24.4768767 16.2696037,25.1081543 C16.7680601,25.7394319 17.545054,26.0550659 18.6006086,26.0550659 C19.6268424,26.0550659 20.4746942,25.8486898 21.1441895,25.4359314 C21.8136848,25.023173 22.3194638,24.438036 22.6615418,23.6805029 L22.6615418,14.5755835 L20.5357825,14.1676831 L20.5357825,12.3175635 L25.5496422,12.3175635 L25.5496422,25.8365479 L27.3675328,26.2444482 L27.3675328,28.08 L22.9547499,28.08 L22.7641646,25.7491406 Z M29.6545565,14.1676831 L29.6545565,12.3175635 L34.6244349,12.3175635 L34.9029827,14.6047192 C35.3525708,13.7986263 35.9072174,13.1673582 36.566939,12.710896 C37.2266607,12.2544338 37.9816642,12.0262061 38.8319721,12.0262061 C39.0567662,12.0262061 39.288887,12.0432017 39.5283415,12.0771936 C39.7677961,12.1111855 39.9510493,12.1476048 40.0781068,12.1864526 L39.6969362,14.852373 L38.0549705,14.7649658 C37.2926254,14.7649658 36.6524607,14.9422065 36.134457,15.2966931 C35.6164533,15.6511798 35.2157395,16.1489104 34.9323035,16.7898999 L34.9323035,25.8365479 L37.3219501,26.2444482 L37.3219501,28.08 L29.6545565,28.08 L29.6545565,26.2444482 L32.0442031,25.8365479 L32.0442031,14.5755835 L29.6545565,14.1676831 Z M42.0719224,26.2444482 L44.4615689,25.8365479 L44.4615689,14.5755835 L42.0719224,14.1676831 L42.0719224,12.3175635 L47.3496694,12.3175635 L47.3496694,25.8365479 L49.7393159,26.2444482 L49.7393159,28.08 L42.0719224,28.08 L42.0719224,26.2444482 Z M47.3496694,8.28226318 L44.4615689,8.28226318 L44.4615689,5.35412109 L47.3496694,5.35412109 L47.3496694,8.28226318 Z M64.0771953,17.2706396 L61.9074548,17.2706396 L61.4383218,15.3768164 C61.0864702,15.0466097 60.644219,14.7819627 60.1115548,14.5828674 C59.5788906,14.3837722 58.9753765,14.2842261 58.3009944,14.2842261 C57.2747607,14.2842261 56.5124271,14.5075979 56.0139707,14.9543481 C55.5155143,15.4010984 55.2662899,15.9401043 55.2662899,16.5713818 C55.2662899,17.1929474 55.4861938,17.6833942 55.9260082,18.0427368 C56.3658227,18.4020794 57.2600986,18.7225694 58.608863,19.0042163 C60.6124621,19.4315427 62.102922,20.0118237 63.0802875,20.7450769 C64.0576529,21.4783301 64.5463283,22.4616515 64.5463283,23.6950708 C64.5463283,25.0935934 63.9770215,26.2250201 62.8383908,27.0893848 C61.69976,27.9537494 60.2117434,28.3859253 58.3742964,28.3859253 C57.1721369,28.3859253 56.0921643,28.2475319 55.1343462,27.970741 C54.176528,27.69395 53.3213461,27.2933376 52.5687747,26.7688916 L52.5541143,23.1706274 L54.7238547,23.1706274 L55.2662899,25.2829688 C55.5985941,25.5840396 56.0506188,25.8025555 56.6223776,25.9385229 C57.1941364,26.0744904 57.7781035,26.1424731 58.3742964,26.1424731 C59.4005301,26.1424731 60.2044012,25.936097 60.7859336,25.5233386 C61.367466,25.1105802 61.6582279,24.5691464 61.6582279,23.899021 C61.6582279,23.2677434 61.4163336,22.7481612 60.9325377,22.3402588 C60.4487418,21.9323564 59.5324754,21.577875 58.1837111,21.2768042 C56.2583012,20.8591898 54.8069353,20.2910485 53.8295698,19.5723633 C52.8522044,18.853678 52.363529,17.8824964 52.363529,16.6587891 C52.363529,15.37681 52.9132888,14.2842306 54.0128249,13.3810181 C55.1123611,12.4778055 56.5417366,12.0262061 58.3009944,12.0262061 C59.5031539,12.0262061 60.5831265,12.1815951 61.5409446,12.4923779 C62.4987627,12.8031607 63.2953036,13.2353366 63.9305912,13.7889185 L64.0771953,17.2706396 Z M66.6720875,26.2444482 L69.0617341,25.8365479 L69.0617341,14.5755835 L66.6720875,14.1676831 L66.6720875,12.3175635 L71.6566264,12.3175635 L71.8472117,14.3716333 C72.3554417,13.6238122 73.0102667,13.0459591 73.8117064,12.6380566 C74.613146,12.2301542 75.5416293,12.0262061 76.597184,12.0262061 C77.6527386,12.0262061 78.5592315,12.2690015 79.3166897,12.7545996 C80.0741479,13.2401977 80.6434548,13.968584 81.0246273,14.9397803 C81.5230836,14.0462797 82.1827954,13.3373171 83.0037824,12.8128711 C83.8247694,12.2884251 84.7825731,12.0262061 85.8772224,12.0262061 C87.4996491,12.0262061 88.7799786,12.5773517 89.7182494,13.6796594 C90.6565202,14.7819672 91.1256486,16.4402599 91.1256486,18.6545874 L91.1256486,25.8365479 L93.5152952,26.2444482 L93.5152952,28.08 L85.8332412,28.08 L85.8332412,26.2444482 L88.2228878,25.8365479 L88.2228878,18.6254517 C88.2228878,17.0715376 87.9541163,15.9716744 87.4165653,15.3258289 C86.8790143,14.6799833 86.0824734,14.3570654 85.0269187,14.3570654 C84.0202323,14.3570654 83.2114746,14.7091188 82.6006212,15.4132361 C81.9897678,16.1173534 81.6354781,17.0035567 81.5377416,18.0718726 L81.5377416,25.8365479 L83.9273881,26.2444482 L83.9273881,28.08 L76.2599946,28.08 L76.2599946,26.2444482 L78.6496411,25.8365479 L78.6496411,18.6254517 C78.6496411,17.1492333 78.3735395,16.0687937 77.8213281,15.3841003 C77.2691166,14.699407 76.4701323,14.3570654 75.4243513,14.3570654 C74.5447224,14.3570654 73.8214828,14.536734 73.2546109,14.8960767 C72.6877389,15.2554193 72.2528178,15.7604338 71.9498345,16.4111353 L71.9498345,25.8365479 L74.3394811,26.2444482 L74.3394811,28.08 L66.6720875,28.08 L66.6720875,26.2444482 Z M95.626394,20.053103 C95.626394,17.722232 96.261672,15.8017202 97.532247,14.29151 C98.8028221,12.7812998 100.527846,12.0262061 102.707371,12.0262061 C104.89667,12.0262061 106.629024,12.7788719 107.904486,14.2842261 C109.179948,15.7895803 109.817669,17.71252 109.817669,20.053103 L109.817669,20.3735962 C109.817669,22.7238911 109.182391,24.6468309 107.911816,26.1424731 C106.641241,27.6381154 104.916217,28.3859253 102.736692,28.3859253 C100.53762,28.3859253 98.8028221,27.6356874 97.532247,26.1351892 C96.261672,24.634691 95.626394,22.7141792 95.626394,20.3735962 L95.626394,20.053103 Z M98.5144944,20.3735962 C98.5144944,22.0440538 98.8687841,23.4231318 99.577374,24.5108716 C100.285964,25.5986114 101.339059,26.1424731 102.736692,26.1424731 C104.105004,26.1424731 105.145882,25.5986114 105.859359,24.5108716 C106.572836,23.4231318 106.929569,22.0440538 106.929569,20.3735962 L106.929569,20.053103 C106.929569,18.4020694 106.572836,17.0278473 105.859359,15.9303955 C105.145882,14.8329437 104.09523,14.2842261 102.707371,14.2842261 C101.319512,14.2842261 100.273747,14.8329437 99.5700438,15.9303955 C98.8663407,17.0278473 98.5144944,18.4020694 98.5144944,20.053103 L98.5144944,20.3735962 Z" id="turismo" fill="#1E3E4C"></path>
                <ellipse id="Combined-Shape" fill="#E76A1F" cx="131.578027" cy="17.55" rx="17.6614801" ry="17.55"></ellipse>
                <polygon id="i" fill="#FFFFFF" points="128.22595 25.7175 129.920011 25.3125 129.920011 16.254 128.045731 15.849 128.045731 13.473 133.428277 13.473 133.428277 25.3125 135.110323 25.7175 135.110323 28.08 128.22595 28.08"></polygon>
                <polygon id="i" fill="#FFFFFF" points="133.428277 9.9765 129.920011 9.9765 129.920011 7.02 133.428277 7.02"></polygon>
            </g>
        </g>
    </g>
</svg>